# xmcd
# 
# Track frame offsets:
#     150
#     16347
#     31629
#     48027
#     64816
#     78833
#     95420
#     111457
#     126001
#     139293
#     155452
#     171689
# 
# Disc length: 2508
# 
# Revision: 0
# Processed by: cddbd v1.5.2PL0 Copyright (c) Steve Scherf et al.
# Submitted via: fre:ac v1.0.27
# 
DISCID=9909ca0c
DTITLE=Apink - PINK♡DOLL
DYEAR=2016
DGENRE=
TTITLE0=My First Love
TTITLE1=IT GIRL -Japanese ver.-
TTITLE2=サマータイム!
TTITLE3=Brand New Days
TTITLE4=Shining Star
TTITLE5=Sunshine Girl
TTITLE6=甘い恋しようよ
TTITLE7=Yeah -Japanese ver.-
TTITLE8=ファンファーレ!
TTITLE9=SUNDAY MONDAY -Japanese ver.-
TTITLE10=花占い -Japanese Ver.-
TTITLE11=If I...
EXTD=UPCH-29232
EXTT0=
EXTT1=
EXTT2=Summer Time!
EXTT3=
EXTT4=
EXTT5=
EXTT6=Amai Koi Shiyouyo
EXTT7=
EXTT8=Fanfare!
EXTT9=
EXTT10=Hanauranai
EXTT11=
PLAYORDER=
